<svg viewBox="0 0 31 27" fill="none" xmlns="http://www.w3.org/2000/svg">
<path d="M5.8125 0L0 5.78571V7.71429C0 7.71429 3.875 9.64286 7.75 9.64286C11.625 9.64286 15.5 7.71429 15.5 7.71429C15.5 7.71429 19.375 9.64286 23.25 9.64286C27.125 9.64286 31 7.71429 31 7.71429V5.78571L25.1875 0H5.8125Z" fill="white"/>
<path fill-rule="evenodd" clip-rule="evenodd" d="M1.9375 27V12.5718C3.51988 13.046 5.58326 13.5 7.75 13.5C10.2736 13.5 12.657 12.8841 14.3035 12.3378C14.7429 12.192 15.1447 12.0461 15.5 11.9094C15.8553 12.0461 16.2571 12.192 16.6965 12.3378C18.343 12.8841 20.7264 13.5 23.25 13.5C25.4167 13.5 27.4801 13.046 29.0625 12.5718V27H13.5625V17.3571H7.75V27H1.9375ZM23.25 17.3571H19.375V23.1429H23.25V17.3571Z" fill="white"/>
</svg>
