<svg viewBox="0 0 20 25" fill="none" xmlns="http://www.w3.org/2000/svg">
<path d="M10 0C15.5208 0 20 4.478 20 9.9974C19.987 11.182 19.7721 12.3536 19.3555 13.46L19.3815 13.4535C18.3203 16.7665 13.0794 21.9214 10.0065 25H10V24.9935C7.48698 22.4811 3.53516 18.4522 1.58854 15.4061C1.15234 14.7162 0.807293 14.0588 0.61198 13.4535L0.644531 13.46C0.227865 12.3536 0.00650978 11.182 0 9.9974C0 4.478 4.47266 0 10 0ZM10 6.15074C7.8776 6.15074 6.15234 7.87555 6.15234 9.9974C6.15234 12.1192 7.8776 13.8441 10 13.8441C12.1224 13.8375 13.8411 12.1192 13.8411 9.9974C13.8477 7.87555 12.1224 6.15725 10 6.15074Z" fill="#F3BC18"/>
</svg>
