<svg viewBox="0 0 26 24" fill="none" xmlns="http://www.w3.org/2000/svg">
<path d="M16.9283 15.2265H14.8356C14.4027 15.2265 14.051 15.5722 14.051 15.9989C14.051 16.4261 14.4027 16.7713 14.8356 16.7713H16.9283C17.3613 16.7713 17.7135 16.4261 17.7135 15.9989C17.7135 15.5718 17.3613 15.2265 16.9283 15.2265Z" fill="white"/>
<path d="M20.9218 15.2265H18.7645C18.3315 15.2265 17.9798 15.5722 17.9798 15.9989C17.9798 16.4261 18.3315 16.7713 18.7645 16.7713H20.9218C21.3547 16.7713 21.7055 16.4261 21.7055 15.9989C21.7055 15.5718 21.3547 15.2265 20.9218 15.2265Z" fill="white"/>
<path d="M5.37805 8.55546H12.277C12.7106 8.55546 13.0617 8.21004 13.0617 7.7833C13.0617 7.35612 12.7106 7.0107 12.277 7.0107H5.37805C4.94453 7.0107 4.59309 7.35612 4.59309 7.7833C4.593 8.20995 4.94444 8.55546 5.37805 8.55546Z" fill="white"/>
<path d="M25.2142 22.4541H24.1889V9.42541C24.1889 8.99867 23.8367 8.65273 23.4037 8.65273H21.7055V0.772687C21.7055 0.345948 21.3538 0 20.9209 0H18.7635C18.3305 0 17.9788 0.345948 17.9788 0.772687V8.65273H17.2887V0.772687C17.2887 0.345948 16.9365 0 16.5035 0H14.3467C13.9138 0 13.5625 0.345948 13.5625 0.772687V8.65273H2.59631C2.16279 8.65273 1.81081 8.99867 1.81081 9.42541V22.4541H0.784965C0.351 22.4541 0 22.7998 0 23.2276C0 23.6543 0.350911 24 0.784965 24H25.2153C25.6483 24 26 23.6543 26 23.2276C25.9994 22.7993 25.6483 22.4541 25.2142 22.4541ZM6.16213 22.4541V16.7709H11.491V22.4541H6.16213Z" fill="white"/>
<rect x="14" y="15" width="4" height="2" rx="1" fill="#111517"/>
<rect x="19" y="15" width="4" height="2" rx="1" fill="#111517"/>
</svg>
