<svg viewBox="0 0 20 19" fill="none" xmlns="http://www.w3.org/2000/svg">
<path d="M13.9513 12.1261L13.4452 12.6296C13.4452 12.6296 12.2423 13.8265 8.95899 10.5595C5.67568 7.29267 6.87855 6.09582 6.87855 6.09582L7.19721 5.77873C7.98232 4.99761 8.05632 3.74351 7.37132 2.82798L5.97028 0.955169C5.12253 -0.17799 3.48439 -0.327679 2.51272 0.639124L0.76872 2.37439C0.28692 2.85377 -0.0359464 3.4752 0.00320911 4.16457C0.103376 5.92821 0.900785 9.72284 5.35039 14.1501C10.069 18.8451 14.4964 19.0316 16.307 18.8627C16.8796 18.8094 17.3776 18.5175 17.779 18.1181L19.3574 16.5477C20.4229 15.4876 20.1224 13.6702 18.7592 12.9287L16.6364 11.7739C15.7413 11.287 14.6509 11.43 13.9513 12.1261Z" fill="#F3BC18"/>
</svg>
