<svg viewBox="0 0 23 16" fill="none" xmlns="http://www.w3.org/2000/svg">
<path d="M13.9272 7.69626C13.5066 7.50712 13.5066 6.78479 13.4806 6.28178C13.3754 4.49004 13.9011 1.75464 13.2703 0.591671C12.8236 -0.100478 10.6678 -0.037098 9.35396 0.0574688C8.98555 0.120849 8.5389 0.21441 8.22348 0.403544C7.90805 0.592678 7.59263 0.906558 7.59263 1.18925C7.59263 1.5977 8.38161 1.53533 8.67012 2.06953C8.98554 2.63592 8.98554 3.86127 8.98554 4.8673C8.98554 6.03027 8.82741 7.57151 8.43376 7.63388C7.82899 7.66507 7.48749 6.94173 7.17206 6.40753C6.54121 5.37031 5.91036 4.08058 5.43681 2.82305C5.20045 2.16309 5.06839 1.43975 4.72689 1.15706C4.20118 0.716419 3.25491 0.685232 2.33471 0.716419C1.49358 0.747606 0.284031 0.621853 0.0476726 1.21943C-0.136535 1.87939 0.257956 2.50816 0.468239 3.04337C1.54573 5.84114 2.70229 8.29384 4.12212 10.6198C5.43681 12.7888 6.67159 14.5181 9.08985 15.4296C9.77369 15.6811 12.7698 16.4045 13.3746 15.4296C13.5849 15.0523 13.5327 14.2033 13.6378 13.5745C13.743 12.9457 13.8742 12.317 14.3738 12.2858C14.7944 12.2546 15.0308 12.6942 15.294 13.0091C15.5834 13.3552 15.8197 13.6379 16.03 13.9528C16.5297 14.5503 17.0554 15.3672 17.6862 15.6821C18.5534 16.1228 19.8942 15.997 21.1559 15.9336C22.1812 15.9024 22.9172 15.6509 22.9963 14.9276C23.0493 14.3612 22.5227 13.5443 22.2073 13.0725C21.4183 11.9095 21.0507 11.5634 20.1566 10.494C19.7621 10.0222 19.2625 9.51918 19.2625 8.95379C19.2364 8.60772 19.4728 8.29384 19.6831 7.94776C20.6033 6.31296 21.5235 5.14999 22.3646 3.45182C22.601 2.9488 23.1536 1.78583 22.9433 1.21943C22.7069 0.590666 21.3922 0.778792 20.5772 0.778792C19.5258 0.778792 18.1589 0.684226 17.8957 0.935733C17.396 1.34418 17.1857 2.00514 16.9494 2.63391C16.4237 4.08058 15.7138 5.55744 14.9778 6.65803C14.7145 7.0353 14.2157 7.821 13.9264 7.69525L13.9272 7.69626Z" fill="#F3BC18"/>
</svg>
